<svg fill="#000000" xmlns="http://www.w3.org/2000/svg"  viewBox="0 0 100 100" width="40px" height="40px">
<path d="M 54.773438 16.087891 C 54.731016 16.078375 54.684422 16.078344 54.638672 16.089844 L 52.128906 16.716797 C 51.834906 16.789797 51.834906 17.20825 52.128906 17.28125 L 54.638672 17.908203 C 54.821672 17.956203 55 17.816953 55 17.626953 L 55 16.371094 C 55 16.229344 54.900703 16.116437 54.773438 16.087891 z M 55 19 C 54.6 19 54.237078 19.238422 54.080078 19.607422 L 51.080078 26.607422 C 50.947078 26.915422 50.979062 27.269781 51.164062 27.550781 C 51.349062 27.830781 51.664 28 52 28 L 58 28 C 58.336 28 58.650938 27.831781 58.835938 27.550781 C 59.020937 27.269781 59.052922 26.914469 58.919922 26.605469 L 55.919922 19.605469 C 55.762922 19.237469 55.4 19 55 19 z M 55 22.539062 L 56.484375 26 L 53.517578 26 L 55 22.539062 z M 43.685547 24.394531 C 43.559547 24.394531 43.432688 24.401969 43.304688 24.417969 C 41.567687 24.654969 39.843969 24.992828 38.167969 25.423828 C 18.050969 30.581828 4 48.706 4 69.5 L 4 75 C 4 76.654 5.346 78 7 78 C 8.654 78 10 76.654 10 75 L 10 69.5 C 10 51.447 22.195203 35.710375 39.658203 31.234375 C 41.108203 30.862375 42.602609 30.569234 44.099609 30.365234 C 45.739609 30.140234 46.890016 28.625281 46.666016 26.988281 C 46.464016 25.510281 45.182547 24.394531 43.685547 24.394531 z M 64.392578 26.322266 C 63.113578 26.322266 61.973641 27.13575 61.556641 28.34375 C 61.016641 29.90675 61.848109 31.618203 63.412109 32.158203 C 64.600109 32.568203 65.782828 33.041453 66.923828 33.564453 C 80.941828 39.981453 90 54.088 90 69.5 L 90 75 C 90 76.654 91.346 78 93 78 C 94.654 78 96 76.654 96 75 L 96 69.5 C 96 51.748 85.567875 35.501375 69.421875 28.109375 C 68.105875 27.506375 66.742094 26.960328 65.371094 26.486328 C 65.052094 26.377328 64.723578 26.322266 64.392578 26.322266 z M 43.685547 26.394531 C 44.176547 26.394531 44.614594 26.754766 44.683594 27.259766 C 44.758594 27.806766 44.375125 28.309766 43.828125 28.384766 C 42.260125 28.598766 40.690109 28.906828 39.162109 29.298828 C 20.813109 34.001828 8 50.533 8 69.5 L 8 75 C 8 75.553 7.552 76 7 76 C 6.448 76 6 75.553 6 75 L 6 69.5 C 6 49.619 19.432062 32.290375 38.664062 27.359375 C 40.266062 26.948375 41.913594 26.627344 43.558594 26.402344 C 43.601594 26.397344 43.643547 26.394531 43.685547 26.394531 z M 64.392578 28.322266 C 64.500578 28.322266 64.609797 28.340953 64.716797 28.376953 C 66.024797 28.828953 67.326891 29.350734 68.587891 29.927734 C 84.024891 36.994734 94 52.528 94 69.5 L 94 75 C 94 75.553 93.552 76 93 76 C 92.448 76 92 75.553 92 75 L 92 69.5 C 92 53.308 82.482859 38.488094 67.755859 31.746094 C 66.553859 31.195094 65.313406 30.698578 64.066406 30.267578 C 63.544406 30.086578 63.267266 29.517094 63.447266 28.996094 C 63.590266 28.582094 63.978578 28.322266 64.392578 28.322266 z M 52 29 C 51.448 29 51 29.447 51 30 L 51 30.585938 L 50.292969 31.292969 C 49.901969 31.683969 49.901969 32.316031 50.292969 32.707031 L 51 33.414062 L 51 35 C 51 35.553 51.448 36 52 36 L 58 36 C 58.552 36 59 35.553 59 35 L 59 33.414062 L 59.707031 32.707031 C 60.098031 32.316031 60.098031 31.683969 59.707031 31.292969 L 59 30.585938 L 59 30 C 59 29.447 58.552 29 58 29 L 52 29 z M 53 31 L 57 31 C 57 31.266 57.104969 31.520031 57.292969 31.707031 L 57.585938 32 L 57.292969 32.292969 C 57.104969 32.479969 57 32.734 57 33 L 57 34 L 53 34 L 53 33 C 53 32.734 52.895031 32.479969 52.707031 32.292969 L 52.414062 32 L 52.707031 31.707031 C 52.895031 31.520031 53 31.266 53 31 z M 44.773438 32.087891 C 44.731016 32.078375 44.684422 32.078344 44.638672 32.089844 L 42.128906 32.716797 C 41.834906 32.789797 41.834906 33.20825 42.128906 33.28125 L 44.638672 33.908203 C 44.821672 33.956203 45 33.816953 45 33.626953 L 45 32.371094 C 45 32.229344 44.900703 32.116437 44.773438 32.087891 z M 44.9375 35.001953 C 44.5815 35.024953 44.265469 35.234734 44.105469 35.552734 L 42.105469 39.552734 C 42.036469 39.690734 42 39.845 42 40 L 42 42 C 42 42.553 42.448 43 43 43 L 59 43 C 59.552 43 60 42.553 60 42 L 60 39 C 60 38.447 59.552 38 59 38 C 59 37.447 58.552 37 58 37 L 52 37 C 51.448 37 51 37.447 51 38 L 47.535156 38 L 45.832031 35.445312 C 45.634031 35.149313 45.2955 34.987953 44.9375 35.001953 z M 65.773438 36.087891 C 65.731016 36.078375 65.684422 36.078344 65.638672 36.089844 L 63.128906 36.716797 C 62.834906 36.789797 62.834906 37.20825 63.128906 37.28125 L 65.638672 37.908203 C 65.821672 37.956203 66 37.816953 66 37.626953 L 66 36.371094 C 66 36.229344 65.900703 36.116437 65.773438 36.087891 z M 31.773438 37.087891 C 31.731016 37.078375 31.684422 37.078344 31.638672 37.089844 L 29.128906 37.716797 C 28.834906 37.789797 28.834906 38.20825 29.128906 38.28125 L 31.638672 38.908203 C 31.821672 38.956203 32 38.816953 32 38.626953 L 32 37.371094 C 32 37.229344 31.900703 37.116437 31.773438 37.087891 z M 45.123047 37.988281 L 46.167969 39.554688 C 46.353969 39.832687 46.666 40 47 40 L 52 40 C 52.552 40 53 39.553 53 39 L 57 39 C 57 39.553 57.448 40 58 40 L 58 41 L 44 41 L 44 40.236328 L 45.123047 37.988281 z M 66 39.042969 C 65.6375 39.042969 65.274969 39.213734 65.105469 39.552734 L 62.105469 45.552734 C 61.950469 45.862734 61.965438 46.230391 62.148438 46.525391 C 62.331437 46.820391 62.653 47 63 47 L 63 48 C 63 48.553 63.448 49 64 49 L 68 49 C 68.552 49 69 48.553 69 48 L 69 47 C 69.347 47 69.667609 46.820391 69.849609 46.525391 C 70.031609 46.230391 70.049531 45.862734 69.894531 45.552734 L 66.894531 39.552734 C 66.725031 39.213734 66.3625 39.042969 66 39.042969 z M 32 40.037109 C 31.65475 40.037109 31.310313 40.192406 31.132812 40.503906 L 27.132812 47.503906 C 26.955813 47.813906 26.955766 48.192953 27.134766 48.501953 C 27.313766 48.810953 27.644 49 28 49 L 36 49 C 36.356 49 36.686234 48.810953 36.865234 48.501953 C 37.044234 48.192953 37.044187 47.813906 36.867188 47.503906 L 32.867188 40.503906 C 32.689687 40.192406 32.34525 40.037109 32 40.037109 z M 66 42.236328 L 67.460938 45.15625 C 67.183938 45.33525 67 45.646 67 46 L 67 47 L 65 47 L 65 46 C 65 45.646 64.816063 45.33525 64.539062 45.15625 L 66 42.236328 z M 32 43.015625 L 34.277344 47 L 29.722656 47 L 32 43.015625 z M 44 44 C 42.897 44 42 44.897 42 46 L 42 47 C 42 48.103 42.897 49 44 49 L 60 49 C 60.321 49 60.622547 48.845938 60.810547 48.585938 C 60.998547 48.325938 61.051219 47.988594 60.949219 47.683594 L 59.949219 44.683594 C 59.813219 44.274594 59.431 44 59 44 L 44 44 z M 21.773438 45.087891 C 21.731016 45.078375 21.684422 45.078344 21.638672 45.089844 L 19.128906 45.716797 C 18.834906 45.789797 18.834906 46.20825 19.128906 46.28125 L 21.638672 46.908203 C 21.821672 46.956203 22 46.816953 22 46.626953 L 22 45.371094 C 22 45.229344 21.900703 45.116437 21.773438 45.087891 z M 44 46 L 58.279297 46 L 58.613281 47 L 44 47 L 44 46 z M 22 48 C 21.6 48 21.237078 48.238422 21.080078 48.607422 L 18.080078 55.607422 C 17.947078 55.915422 17.979063 56.269781 18.164062 56.550781 C 18.349063 56.830781 18.664 57 19 57 L 25 57 C 25.336 57 25.650937 56.831781 25.835938 56.550781 C 26.020937 56.269781 26.052922 55.914469 25.919922 55.605469 L 22.919922 48.605469 C 22.762922 48.237469 22.4 48 22 48 z M 29 50 C 28.448 50 28 50.447 28 51 L 28 55 C 28 55.553 28.448 56 29 56 L 76 56 C 76.347 56 76.669562 55.820391 76.851562 55.525391 C 77.033563 55.230391 77.049531 54.862734 76.894531 54.552734 L 74.894531 50.552734 C 74.724531 50.213734 74.379 50 74 50 L 40 50 C 39.448 50 39 50.447 39 51 L 38 51 C 38 50.447 37.552 50 37 50 L 29 50 z M 22 51.539062 L 23.484375 55 L 20.517578 55 L 22 51.539062 z M 30 52 L 36 52 C 36 52.553 36.448 53 37 53 L 40 53 C 40.552 53 41 52.553 41 52 L 73.382812 52 L 74.382812 54 L 30 54 L 30 52 z M 18 58 C 17.685 58 17.388219 58.148391 17.199219 58.400391 L 14.199219 62.400391 C 13.971219 62.703391 13.936469 63.108266 14.105469 63.447266 C 14.274469 63.786266 14.621 64 15 64 L 42.761719 64 C 43.064719 64 43.351016 63.862953 43.541016 63.626953 C 43.793016 63.312953 44.026813 62.988016 44.257812 62.666016 C 45.326813 61.177016 46.17 60 49 60 C 51.83 60 52.673188 61.177016 53.742188 62.666016 C 53.973188 62.988016 54.206984 63.312953 54.458984 63.626953 C 54.648984 63.862953 54.935281 64 55.238281 64 L 81 64 C 81.379 64 81.724531 63.786266 81.894531 63.447266 C 82.064531 63.108266 82.027781 62.703391 81.800781 62.400391 L 78.800781 58.400391 C 78.611781 58.148391 78.315 58 78 58 L 49 58 L 18 58 z M 18.5 60 L 43.816406 60 C 43.362406 60.481 42.990812 61.001 42.632812 61.5 C 42.512813 61.667 42.392531 61.834 42.269531 62 L 17 62 L 18.5 60 z M 54.183594 60 L 77.5 60 L 79 62 L 55.730469 62 C 55.607469 61.834 55.487187 61.667 55.367188 61.5 C 55.009188 61.001 54.637594 60.481 54.183594 60 z M 18 65 C 16.897 65 16 65.897 16 67 L 16 69 C 16 70.103 16.897 71 18 71 L 41 71 C 41.552 71 42 70.553 42 70 L 42 68 C 42 67.433 42.077469 66.843047 42.230469 66.248047 C 42.307469 65.950047 42.241734 65.632672 42.052734 65.388672 C 41.862734 65.143672 41.570719 65 41.261719 65 L 18 65 z M 56.738281 65 C 56.429281 65 56.136266 65.143672 55.947266 65.388672 C 55.757266 65.632672 55.692531 65.949047 55.769531 66.248047 C 55.921531 66.843047 56 67.433 56 68 L 56 70 C 56 70.553 56.448 71 57 71 L 79 71 C 80.103 71 81 70.103 81 69 L 81 67 C 81 65.897 80.103 65 79 65 L 56.738281 65 z M 18 67 L 40.058594 67 C 40.019594 67.336 40 67.67 40 68 L 40 69 L 18 69 L 18 67 z M 57.941406 67 L 79 67 L 79 69 L 58 69 L 58 68 C 58 67.67 57.980406 67.336 57.941406 67 z M 18 72 C 16.897 72 16 72.897 16 74 L 16 76 C 16 77.103 16.897 78 18 78 L 40 78 C 41.103 78 42 77.103 42 76 L 42 74 C 42 72.897 41.103 72 40 72 L 18 72 z M 57 72 C 56.448 72 56 72.447 56 73 L 56 77 C 56 77.553 56.448 78 57 78 L 79 78 C 80.103 78 81 77.103 81 76 L 81 74 C 81 72.897 80.103 72 79 72 L 57 72 z M 18 74 L 40 74 L 40 76 L 18 76 L 18 74 z M 58 74 L 79 74 L 79 76 L 58 76 L 58 74 z"/></svg>